<svg xmlns="http://www.w3.org/2000/svg" width="14" height="14" viewBox="0 0 14 14">
  <path d="M 5.4746094 2.2382812 L 7 3.7617188 L 8.5253906 2.2382812 L 5.4746094 2.2382812 z M 2.2382812 5.4746094 L 2.2382812 8.5253906 L 3.7617188 7 L 2.2382812 5.4746094 z M 11.761719 5.4746094 L 10.238281 7 L 11.761719 8.5253906 L 11.761719 5.4746094 z M 7 5.5683594 A 1.4318181 1.4318181 0 0 0 5.5683594 7 A 1.4318181 1.4318181 0 0 0 7 8.4316406 A 1.4318181 1.4318181 0 0 0 8.4316406 7 A 1.4318181 1.4318181 0 0 0 7 5.5683594 z M 7 10.238281 L 5.4746094 11.761719 L 8.5253906 11.761719 L 7 10.238281 z " />
</svg>
