<svg xmlns="http://www.w3.org/2000/svg" width="14" height="14" viewBox="0 0 14 14">
  <path d="M 7 1.8847656 C 5.7209473 1.8847656 4.553013 2.3551743 3.65625 3.1308594 L 3.6542969 3.1289062 C 3.6272323 3.1523189 3.600783 3.1772045 3.5742188 3.2011719 C 3.5663444 3.2082782 3.5586111 3.2155019 3.5507812 3.2226562 C 3.4935426 3.2749413 3.4376226 3.328004 3.3828125 3.3828125 C 3.3280024 3.437621 3.2749456 3.4935428 3.2226562 3.5507812 C 3.2155016 3.5586109 3.2082784 3.5663445 3.2011719 3.5742188 C 3.1772023 3.6007829 3.1523219 3.6272323 3.1289062 3.6542969 L 3.1308594 3.65625 C 2.3551471 4.5529947 1.8847656 5.720854 1.8847656 7 C 1.8847656 9.8252879 4.1744646 12.115234 7 12.115234 C 8.2789966 12.115234 9.4469761 11.644882 10.34375 10.869141 L 10.345703 10.871094 C 10.372768 10.847678 10.399217 10.822797 10.425781 10.798828 C 10.430215 10.794828 10.435034 10.791125 10.439453 10.787109 C 10.442854 10.784019 10.445827 10.780443 10.449219 10.777344 C 10.506457 10.725056 10.562379 10.671994 10.617188 10.617188 C 10.671995 10.56238 10.725059 10.506456 10.777344 10.449219 C 10.780429 10.445841 10.784033 10.442839 10.787109 10.439453 C 10.791153 10.435004 10.7948 10.430244 10.798828 10.425781 C 10.822795 10.399218 10.847681 10.372768 10.871094 10.345703 L 10.869141 10.34375 C 11.644869 9.446967 12.115234 8.27895 12.115234 7 C 12.115234 4.1742584 9.8253909 1.8847656 7 1.8847656 z M 7 2.6875 C 9.3812259 2.6875 11.3125 4.6184854 11.3125 7 C 11.3125 8.05715 10.932496 9.0252013 10.300781 9.7753906 L 7.3222656 6.796875 L 7.4550781 6.3261719 L 7.6582031 6.5488281 C 7.6612131 6.5521281 7.6657949 6.5549106 7.6699219 6.5566406 L 8.8339844 7.0449219 C 8.8830242 7.0677509 9.0096155 7.0672522 9.0585938 6.9589844 C 9.1075716 6.8507167 9.0683992 6.7695921 9.0351562 6.7363281 L 7.9726562 6.0273438 C 7.9700785 6.0161871 7.9661283 6.0025725 7.9628906 5.9882812 C 7.907437 5.743947 7.7564128 5.078846 7.4550781 4.7832031 C 7.406863 4.7358903 7.2079256 4.6373053 7.0390625 4.6386719 C 7.0149392 4.6388671 6.9931094 4.6398114 6.9707031 4.6445312 C 6.7335249 4.6944994 6.4585121 4.8257723 6.2167969 4.9628906 C 6.0555109 5.0539556 5.9015914 5.1485186 5.7617188 5.2363281 L 4.2246094 3.6992188 C 4.9747504 3.0676563 5.9428646 2.6875 7 2.6875 z M 7.4785156 3.3613281 C 7.1436153 3.3783762 6.875 3.6568281 6.875 3.9960938 C 6.875 4.3453961 7.1598034 4.6308594 7.5097656 4.6308594 C 7.8593155 4.6308594 8.1445312 4.3453755 8.1445312 3.9960938 C 8.1445312 3.645884 7.8592949 3.3613281 7.5097656 3.3613281 C 7.4988293 3.3613281 7.4893189 3.3607782 7.4785156 3.3613281 z M 3.6992188 4.2246094 L 5.296875 5.8222656 L 5.1796875 7.0976562 C 5.1793163 7.1017395 5.1724448 7.2254714 5.3554688 7.2460938 C 5.5384927 7.2667161 5.5589383 7.1208497 5.5605469 7.1132812 L 5.7421875 6.2675781 L 5.9375 6.4628906 C 5.8474002 6.8995171 5.8419119 7.2802312 5.9316406 7.5449219 L 5.2792969 10.205078 C 5.2755469 10.220438 5.2839591 10.236808 5.2988281 10.242188 L 5.7871094 10.417969 C 5.7905094 10.419169 5.793308 10.419922 5.796875 10.419922 C 5.801455 10.419922 5.8063439 10.419969 5.8105469 10.417969 C 5.8180369 10.414369 5.8234909 10.406296 5.8261719 10.398438 L 6.6386719 8.0273438 L 7.2558594 8.5097656 L 7.8105469 10.335938 C 7.8129369 10.343836 7.8188749 10.349666 7.8261719 10.353516 C 7.8334719 10.357416 7.8417314 10.357969 7.8496094 10.355469 L 8.3457031 10.199219 C 8.3615201 10.194219 8.3695234 10.178129 8.3652344 10.162109 L 7.9003906 8.4257812 L 9.7753906 10.300781 C 9.0252412 10.932396 8.0570897 11.3125 7 11.3125 C 4.6186711 11.3125 2.6875 9.3811227 2.6875 7 C 2.6875 5.9427821 3.0676318 4.9747352 3.6992188 4.2246094 z " />
</svg>
